<mxfile host="app.diagrams.net" modified="2020-04-21T12:51:35.318Z" agent="5.0 (Macintosh; Intel Mac OS X 10_15_4) AppleWebKit/605.1.15 (KHTML, like Gecko) Version/13.1 Safari/605.1.15" etag="kNuPU4BA555zpjRWSXTI" version="13.0.0" type="github">
  <diagram id="02oqcfpk3BLxGNDMRyXa" name="Page-1">
    <mxGraphModel dx="1033" dy="601" grid="1" gridSize="10" guides="1" tooltips="1" connect="1" arrows="1" fold="1" page="1" pageScale="1" pageWidth="827" pageHeight="1169" math="0" shadow="0">
      <root>
        <mxCell id="0" />
        <mxCell id="1" parent="0" />
        <mxCell id="QOGCJ_LkCqJadUe-3F2g-10" style="rounded=1;orthogonalLoop=1;jettySize=auto;html=1;exitX=0.25;exitY=1;exitDx=0;exitDy=0;entryX=0;entryY=0.75;entryDx=0;entryDy=0;edgeStyle=orthogonalEdgeStyle;" parent="1" source="QOGCJ_LkCqJadUe-3F2g-6" target="QOGCJ_LkCqJadUe-3F2g-8" edge="1">
          <mxGeometry relative="1" as="geometry" />
        </mxCell>
        <mxCell id="QOGCJ_LkCqJadUe-3F2g-19" value="presentedIn [0-1]" style="text;html=1;align=center;verticalAlign=middle;resizable=0;points=[];labelBackgroundColor=#ffffff;" parent="QOGCJ_LkCqJadUe-3F2g-10" vertex="1" connectable="0">
          <mxGeometry x="-0.1872" y="-1" relative="1" as="geometry">
            <mxPoint x="50.97" y="20.400000000000002" as="offset" />
          </mxGeometry>
        </mxCell>
        <mxCell id="QOGCJ_LkCqJadUe-3F2g-14" style="edgeStyle=orthogonalEdgeStyle;rounded=1;orthogonalLoop=1;jettySize=auto;html=1;exitX=1;exitY=0.25;exitDx=0;exitDy=0;entryX=0;entryY=0.25;entryDx=0;entryDy=0;" parent="1" source="QOGCJ_LkCqJadUe-3F2g-6" target="QOGCJ_LkCqJadUe-3F2g-7" edge="1">
          <mxGeometry relative="1" as="geometry" />
        </mxCell>
        <mxCell id="QOGCJ_LkCqJadUe-3F2g-16" value="involves [1-5]" style="text;html=1;align=center;verticalAlign=middle;resizable=0;points=[];labelBackgroundColor=#ffffff;" parent="QOGCJ_LkCqJadUe-3F2g-14" vertex="1" connectable="0">
          <mxGeometry x="0.0233" y="-1" relative="1" as="geometry">
            <mxPoint x="-2.4000000000000004" y="-11" as="offset" />
          </mxGeometry>
        </mxCell>
        <mxCell id="QOGCJ_LkCqJadUe-3F2g-6" value="Service [5-100]" style="shape=ext;double=1;rounded=1;whiteSpace=wrap;html=1;" parent="1" vertex="1">
          <mxGeometry x="80" y="120" width="120" height="80" as="geometry" />
        </mxCell>
        <mxCell id="QOGCJ_LkCqJadUe-3F2g-13" style="edgeStyle=orthogonalEdgeStyle;rounded=1;orthogonalLoop=1;jettySize=auto;html=1;exitX=0.75;exitY=1;exitDx=0;exitDy=0;entryX=1;entryY=0.75;entryDx=0;entryDy=0;" parent="1" source="QOGCJ_LkCqJadUe-3F2g-7" target="QOGCJ_LkCqJadUe-3F2g-8" edge="1">
          <mxGeometry relative="1" as="geometry" />
        </mxCell>
        <mxCell id="QOGCJ_LkCqJadUe-3F2g-21" value="isContactFor [0-1]" style="text;html=1;align=center;verticalAlign=middle;resizable=0;points=[];labelBackgroundColor=#ffffff;" parent="QOGCJ_LkCqJadUe-3F2g-13" vertex="1" connectable="0">
          <mxGeometry x="0.0524" y="-39" relative="1" as="geometry">
            <mxPoint x="-48" y="29" as="offset" />
          </mxGeometry>
        </mxCell>
        <mxCell id="QOGCJ_LkCqJadUe-3F2g-15" style="edgeStyle=orthogonalEdgeStyle;rounded=1;orthogonalLoop=1;jettySize=auto;html=1;exitX=0;exitY=0.75;exitDx=0;exitDy=0;entryX=1;entryY=0.75;entryDx=0;entryDy=0;" parent="1" source="QOGCJ_LkCqJadUe-3F2g-7" target="QOGCJ_LkCqJadUe-3F2g-6" edge="1">
          <mxGeometry relative="1" as="geometry" />
        </mxCell>
        <mxCell id="QOGCJ_LkCqJadUe-3F2g-18" value="isInvolvedIn [1-3]" style="text;html=1;align=center;verticalAlign=middle;resizable=0;points=[];labelBackgroundColor=#ffffff;" parent="QOGCJ_LkCqJadUe-3F2g-15" vertex="1" connectable="0">
          <mxGeometry x="0.15" relative="1" as="geometry">
            <mxPoint x="15.200000000000001" y="-10" as="offset" />
          </mxGeometry>
        </mxCell>
        <mxCell id="QOGCJ_LkCqJadUe-3F2g-7" value="Person [5-100]" style="shape=ext;double=1;rounded=1;whiteSpace=wrap;html=1;" parent="1" vertex="1">
          <mxGeometry x="400" y="120" width="120" height="80" as="geometry" />
        </mxCell>
        <mxCell id="QOGCJ_LkCqJadUe-3F2g-11" style="edgeStyle=orthogonalEdgeStyle;rounded=1;orthogonalLoop=1;jettySize=auto;html=1;exitX=0;exitY=0.25;exitDx=0;exitDy=0;entryX=0.75;entryY=1;entryDx=0;entryDy=0;" parent="1" source="QOGCJ_LkCqJadUe-3F2g-8" target="QOGCJ_LkCqJadUe-3F2g-6" edge="1">
          <mxGeometry relative="1" as="geometry" />
        </mxCell>
        <mxCell id="QOGCJ_LkCqJadUe-3F2g-20" value="presents [0-3]" style="text;html=1;align=center;verticalAlign=middle;resizable=0;points=[];labelBackgroundColor=#ffffff;" parent="QOGCJ_LkCqJadUe-3F2g-11" vertex="1" connectable="0">
          <mxGeometry x="0.4041" y="-3" relative="1" as="geometry">
            <mxPoint x="36.98" y="-10.760000000000002" as="offset" />
          </mxGeometry>
        </mxCell>
        <mxCell id="QOGCJ_LkCqJadUe-3F2g-12" style="edgeStyle=orthogonalEdgeStyle;rounded=1;orthogonalLoop=1;jettySize=auto;html=1;exitX=1;exitY=0.25;exitDx=0;exitDy=0;entryX=0.25;entryY=1;entryDx=0;entryDy=0;" parent="1" source="QOGCJ_LkCqJadUe-3F2g-8" target="QOGCJ_LkCqJadUe-3F2g-7" edge="1">
          <mxGeometry relative="1" as="geometry">
            <mxPoint x="420" y="290" as="targetPoint" />
          </mxGeometry>
        </mxCell>
        <mxCell id="QOGCJ_LkCqJadUe-3F2g-22" value="contact [1-1]" style="text;html=1;align=center;verticalAlign=middle;resizable=0;points=[];labelBackgroundColor=#ffffff;" parent="QOGCJ_LkCqJadUe-3F2g-12" vertex="1" connectable="0">
          <mxGeometry x="-0.5069" y="2" relative="1" as="geometry">
            <mxPoint x="-11.599999999999998" y="-58" as="offset" />
          </mxGeometry>
        </mxCell>
        <mxCell id="QOGCJ_LkCqJadUe-3F2g-8" value="Event [5-100]" style="shape=ext;double=1;rounded=1;whiteSpace=wrap;html=1;" parent="1" vertex="1">
          <mxGeometry x="240" y="280" width="120" height="80" as="geometry" />
        </mxCell>
        <mxCell id="QOGCJ_LkCqJadUe-3F2g-9" value="Association" style="rounded=1;whiteSpace=wrap;html=1;" parent="1" vertex="1">
          <mxGeometry x="640" y="40" width="120" height="80" as="geometry" />
        </mxCell>
        <mxCell id="QOGCJ_LkCqJadUe-3F2g-26" value="" style="shape=image;html=1;verticalAlign=top;verticalLabelPosition=bottom;labelBackgroundColor=#ffffff;imageAspect=0;aspect=fixed;image=https://cdn1.iconfinder.com/data/icons/shapes-101/300/Diamond-128.png" parent="1" vertex="1">
          <mxGeometry x="280" y="410" width="40" height="40" as="geometry" />
        </mxCell>
        <mxCell id="QOGCJ_LkCqJadUe-3F2g-27" value="" style="rhombus;whiteSpace=wrap;html=1;" parent="1" vertex="1">
          <mxGeometry x="120" y="20" width="40" height="50" as="geometry" />
        </mxCell>
        <mxCell id="QOGCJ_LkCqJadUe-3F2g-28" value="" style="shape=flexArrow;endArrow=classic;html=1;" parent="1" edge="1">
          <mxGeometry width="50" height="50" relative="1" as="geometry">
            <mxPoint x="139.6" y="80" as="sourcePoint" />
            <mxPoint x="139.6" y="110" as="targetPoint" />
          </mxGeometry>
        </mxCell>
        <mxCell id="QOGCJ_LkCqJadUe-3F2g-29" value="All Services" style="text;html=1;align=center;verticalAlign=middle;resizable=0;points=[];autosize=1;" parent="1" vertex="1">
          <mxGeometry x="160" y="35" width="80" height="20" as="geometry" />
        </mxCell>
        <mxCell id="QOGCJ_LkCqJadUe-3F2g-30" value="" style="rhombus;whiteSpace=wrap;html=1;" parent="1" vertex="1">
          <mxGeometry x="440" y="20" width="40" height="50" as="geometry" />
        </mxCell>
        <mxCell id="QOGCJ_LkCqJadUe-3F2g-31" value="" style="shape=flexArrow;endArrow=classic;html=1;" parent="1" edge="1">
          <mxGeometry width="50" height="50" relative="1" as="geometry">
            <mxPoint x="459.5999999999999" y="80" as="sourcePoint" />
            <mxPoint x="459.5999999999999" y="110" as="targetPoint" />
          </mxGeometry>
        </mxCell>
        <mxCell id="QOGCJ_LkCqJadUe-3F2g-32" value="All People" style="text;html=1;align=center;verticalAlign=middle;resizable=0;points=[];autosize=1;" parent="1" vertex="1">
          <mxGeometry x="485" y="35" width="70" height="20" as="geometry" />
        </mxCell>
        <mxCell id="QOGCJ_LkCqJadUe-3F2g-33" value="" style="shape=flexArrow;endArrow=classic;html=1;" parent="1" edge="1">
          <mxGeometry width="50" height="50" relative="1" as="geometry">
            <mxPoint x="299.6" y="400" as="sourcePoint" />
            <mxPoint x="299.5999999999999" y="370" as="targetPoint" />
          </mxGeometry>
        </mxCell>
        <mxCell id="QOGCJ_LkCqJadUe-3F2g-34" value="Events by month [12-12]" style="text;html=1;align=center;verticalAlign=middle;resizable=0;points=[];autosize=1;" parent="1" vertex="1">
          <mxGeometry x="320" y="420" width="140" height="20" as="geometry" />
        </mxCell>
        <mxCell id="QOGCJ_LkCqJadUe-3F2g-35" value="" style="rhombus;whiteSpace=wrap;html=1;" parent="1" vertex="1">
          <mxGeometry x="280" y="500" width="40" height="50" as="geometry" />
        </mxCell>
        <mxCell id="QOGCJ_LkCqJadUe-3F2g-37" value="" style="shape=flexArrow;endArrow=classic;html=1;" parent="1" edge="1">
          <mxGeometry width="50" height="50" relative="1" as="geometry">
            <mxPoint x="299.5999999999999" y="490" as="sourcePoint" />
            <mxPoint x="299.5999999999999" y="460" as="targetPoint" />
          </mxGeometry>
        </mxCell>
        <mxCell id="QOGCJ_LkCqJadUe-3F2g-38" value="All Events" style="text;html=1;align=center;verticalAlign=middle;resizable=0;points=[];autosize=1;" parent="1" vertex="1">
          <mxGeometry x="320" y="515" width="70" height="20" as="geometry" />
        </mxCell>
        <mxCell id="JemXft6pief9WniqtFLg-2" style="edgeStyle=orthogonalEdgeStyle;rounded=1;orthogonalLoop=1;jettySize=auto;html=1;exitX=0.5;exitY=0;exitDx=0;exitDy=0;entryX=1;entryY=0.5;entryDx=0;entryDy=0;" parent="1" source="JemXft6pief9WniqtFLg-1" target="QOGCJ_LkCqJadUe-3F2g-7" edge="1">
          <mxGeometry relative="1" as="geometry">
            <Array as="points">
              <mxPoint x="700" y="160" />
            </Array>
          </mxGeometry>
        </mxCell>
        <mxCell id="JemXft6pief9WniqtFLg-3" style="edgeStyle=orthogonalEdgeStyle;rounded=1;orthogonalLoop=1;jettySize=auto;html=1;exitX=0.5;exitY=1;exitDx=0;exitDy=0;entryX=0;entryY=0.5;entryDx=0;entryDy=0;" parent="1" source="JemXft6pief9WniqtFLg-1" target="QOGCJ_LkCqJadUe-3F2g-6" edge="1">
          <mxGeometry relative="1" as="geometry">
            <Array as="points">
              <mxPoint x="700" y="560" />
              <mxPoint x="60" y="560" />
              <mxPoint x="60" y="160" />
            </Array>
          </mxGeometry>
        </mxCell>
        <mxCell id="JemXft6pief9WniqtFLg-14" value="talksAbout [0-1]" style="edgeLabel;html=1;align=center;verticalAlign=middle;resizable=0;points=[];" parent="JemXft6pief9WniqtFLg-3" vertex="1" connectable="0">
          <mxGeometry x="-0.6709" y="-66" relative="1" as="geometry">
            <mxPoint x="7.5" y="56" as="offset" />
          </mxGeometry>
        </mxCell>
        <mxCell id="JemXft6pief9WniqtFLg-4" style="edgeStyle=orthogonalEdgeStyle;rounded=1;orthogonalLoop=1;jettySize=auto;html=1;exitX=0;exitY=0.5;exitDx=0;exitDy=0;entryX=0.842;entryY=1;entryDx=0;entryDy=0;entryPerimeter=0;" parent="1" source="JemXft6pief9WniqtFLg-1" target="QOGCJ_LkCqJadUe-3F2g-8" edge="1">
          <mxGeometry relative="1" as="geometry">
            <Array as="points">
              <mxPoint x="640" y="380" />
              <mxPoint x="341" y="380" />
            </Array>
          </mxGeometry>
        </mxCell>
        <mxCell id="JemXft6pief9WniqtFLg-13" value="talksAbout [0-1]" style="edgeLabel;html=1;align=center;verticalAlign=middle;resizable=0;points=[];" parent="JemXft6pief9WniqtFLg-4" vertex="1" connectable="0">
          <mxGeometry x="-0.7172" relative="1" as="geometry">
            <mxPoint x="-5" y="-10" as="offset" />
          </mxGeometry>
        </mxCell>
        <mxCell id="JemXft6pief9WniqtFLg-1" value="News [3-1000]" style="shape=ext;double=1;rounded=1;whiteSpace=wrap;html=1;" parent="1" vertex="1">
          <mxGeometry x="640" y="340" width="120" height="80" as="geometry" />
        </mxCell>
        <mxCell id="JemXft6pief9WniqtFLg-6" value="" style="rhombus;whiteSpace=wrap;html=1;" parent="1" vertex="1">
          <mxGeometry x="820" y="355" width="40" height="50" as="geometry" />
        </mxCell>
        <mxCell id="JemXft6pief9WniqtFLg-7" value="" style="shape=flexArrow;endArrow=classic;html=1;" parent="1" edge="1">
          <mxGeometry width="50" height="50" relative="1" as="geometry">
            <mxPoint x="800" y="379.5" as="sourcePoint" />
            <mxPoint x="769.9999999999999" y="379.5" as="targetPoint" />
          </mxGeometry>
        </mxCell>
        <mxCell id="JemXft6pief9WniqtFLg-8" value="All News" style="text;html=1;align=center;verticalAlign=middle;resizable=0;points=[];autosize=1;" parent="1" vertex="1">
          <mxGeometry x="870" y="370" width="60" height="20" as="geometry" />
        </mxCell>
        <mxCell id="JemXft6pief9WniqtFLg-11" value="talksAbout [0-1]" style="text;html=1;align=center;verticalAlign=middle;resizable=0;points=[];autosize=1;" parent="1" vertex="1">
          <mxGeometry x="600" y="160" width="100" height="20" as="geometry" />
        </mxCell>
      </root>
    </mxGraphModel>
  </diagram>
</mxfile>
